PathFileType	4	(X/Y/Z)	C:/Users/beibeiliu/ov580/test_trc/User3\out2_training_dense_right.trc
DataRate	CameraRate	NumFrames	NumMarkers	Units	OrigDataRate	OrigDataStartFrame	OrigNumFrames
120	120	12	19	mm	120	188	500
Frame#	Time	ThumbCMC			ThumbMCP			ThumbIP			ThumbTip			IndexMCP			IndexPIP			IndexTip			MiddleMCP			MiddlePIP			MiddleTip			RingMCP			RingPIP			RingTip			PinkyMCP			PinkyPIP			PinkyTip			BackHand1			BackHand2			BackHand3	
		X0	Y0	Z0	X1	Y1	Z1	X2	Y2	Z2	X3	Y3	Z3	X4	Y4	Z4	X5	Y5	Z5	X6	Y6	Z6	X7	Y7	Z7	X8	Y8	Z8	X9	Y9	Z9	X10	Y10	Z10	X11	Y11	Z11	X12	Y12	Z12	X13	Y13	Z13	X14	Y14	Z14	X15	Y15	Z15	X16	Y16	Z16	X17	Y17	Z17	X18	Y18	Z18	
187	1.55833	146.881	58.4008	22.0895	134.191	69.0308	-3.89028	123.515	83.3897	-26.0814	115.328	95.1514	-41.9822	106.711	30.5767	-40.3221	76.1555	37.5102	-21.7381	96.0281	37.0852	3.9359	101.956	12.2037	-34.3235	78.3686	19.8445	-9.973	110.724	22.5754	11.8509	100.112	-3.45317	-22.2689	83.4319	4.00555	-0.333424	111.304	14.9184	20.536	102.563	-19.8826	-9.87947	90.2978	-7.76914	12.393	115.25	2.19642	28.5115	158.758	-3.54566	-2.92355	171.9	2.38868	22.7463	161.959	33.515	2.37818	
188	1.56667	154.379	54.4752	21.0744	148.353	70.656	-4.28809	140.656	79.3231	-33.1586	136.26	92.6828	-47.6829	107.34	36.888	-42.2358	81.1858	44.7106	-23.2968	100.099	43.7097	1.97953	98.1314	18.7069	-35.6086	77.2322	24.4392	-13.2835	112.632	25.9545	10.3273	97.7913	3.57074	-21.5299	79.9869	12.3432	1.54492	109.701	18.0291	21.0636	99.5042	-11.1501	-9.61064	84.8134	4.59096	9.69399	111.313	9.57635	27.0112	152.287	-6.92887	0.964931	167.314	-2.9808	23.1352	166.041	24.0778	6.81679	
189	1.575	164.13	51.8184	15.9261	161.633	62.4376	-10.1345	158.507	73.9571	-38.6643	155.395	83.1505	-54.5195	116.181	37.4747	-41.6387	89.7829	53.8848	-25.8418	109.142	51.3607	-1.39991	101.373	21.8761	-36.1266	83.6723	38.4686	-11.1932	115.11	31.9762	9.90387	94.904	9.09818	-21.291	83.276	23.9859	1.07848	110.368	20.5915	20.4469	95.9228	-10.2327	-7.20429	86.0693	13.111	8.49879	108.352	12.1922	24.7628	149.278	-12.7313	0.878677	165.37	-8.60333	26.8587	168.029	21.0099	5.0357	
190	1.58333	174.11	43.6542	19.7814	173.751	52.6497	-10.2847	174.898	63.5899	-36.123	175.84	72.7776	-57.6316	124.282	38.1266	-44.1418	101.93	56.7755	-29.3194	121.327	49.942	-1.81514	110.628	21.357	-35.8892	91.9883	40.6171	-12.7996	122.803	28.6197	8.70525	99.2948	13.0416	-21.5874	89.4083	29.3264	-1.00398	119.207	23.9755	19.2801	100.184	-3.49967	-9.18401	88.7342	18.5198	6.74497	111.441	14.1912	24.8718	146.185	-16.6004	0.74191	164.526	-14.6717	31.099	173.538	13.7471	5.20422	
191	1.59167	181.825	33.436	16.2874	184.517	42.6399	-5.4123	192.572	52.7946	-38.35	196.449	62.358	-51.6002	132.47	33.3557	-44.3221	116.272	55.3211	-30.6208	133.696	49.9351	-3.93484	115.986	22.8167	-36.7445	103.508	42.2889	-16.9647	132.943	29.5519	7.91775	109.072	9.10478	-22.7259	99.9208	32.4435	-3.83093	126.301	26.4944	16.6508	100.869	-2.04658	-10.1645	94.8909	20.2796	7.60025	121.861	15.4168	22.737	153.58	-19.7619	1.30734	165.929	-19.0069	31.7733	175.594	2.85677	5.91416	
192	1.6	195.473	25.3283	19.4856	202.786	34.3867	-5.48858	207.427	37.3	-34.114	216.862	47.6775	-48.3405	153.864	29.5554	-44.6619	133.839	50.0302	-33.3631	151.936	40.487	-3.29779	131.839	18.476	-37.9772	122.634	42.5325	-18.6165	147.516	27.1591	8.07593	121.577	12.047	-25.721	111.559	30.67	-6.39754	140.234	24.9458	15.3723	114.763	1.24319	-13.2812	108.812	23.249	3.93244	127.528	13.7646	24.7042	158.229	-24.6856	5.10701	169.959	-24.8948	31.8368	189.185	-4.79679	13.025	
193	1.60833	207.659	17.3541	26.7391	217.918	21.308	-4.49903	228.157	26.5954	-25.3614	239.479	31.3687	-43.6304	174.874	18.8337	-43.0934	158.106	46.7255	-35.4317	173.053	35.9476	-4.96194	153.031	15.1991	-38.962	143.197	39.6486	-25.1302	163.124	24.8892	6.24995	139.634	3.25737	-25.8082	133.52	31.7456	-10.2556	155.02	22.1673	15.3747	125.806	-4.9607	-12.3529	124.416	22.744	1.32971	142.658	11.4371	23.1195	166.64	-32.9643	5.7292	175.762	-32.9899	40.5005	199.96	-13.2322	18.2205	
194	1.61667	226.362	10.3952	28.6373	237.013	11.7162	1.72638	250.639	11.5647	-22.8756	260.011	15.435	-37.6061	192.494	11.3751	-44.0931	182.126	40.4975	-35.6926	188.163	30.2861	-5.69582	171.667	8.12254	-40.4726	162.748	33.9836	-24.8868	180.276	19.3609	6.99576	158.421	1.66948	-27.1862	151.234	27.1059	-13.9095	167.597	20.2555	14.6324	147.566	-3.04059	-17.7114	141.534	19.6441	-5.78846	160.192	15.1626	16.6295	181.066	-34.502	8.65613	187.488	-35.8957	41.9367	214.436	-20.8356	19.3234	
195	1.625	240.814	4.57053	30.7814	252.614	4.21421	4.91792	267.721	4.39764	-15.6656	280.091	4.22941	-33.0459	217.051	3.87905	-42.1131	207.509	33.8841	-37.82	215.343	25.2425	-4.28215	198.923	1.51473	-40.1603	188.964	29.5506	-27.3052	197.166	15.3422	6.27993	178.576	-3.16581	-27.6204	173.307	22.7496	-17.6839	188.973	17.5772	13.129	166.322	-8.17276	-18.9754	162.242	16.5615	-8.52088	182.39	11.497	16.9324	201.032	-36.33	15.3983	201.077	-35.2848	46.0169	229.143	-24.0273	26.7519	
196	1.63333	258.23	6.91727	36.3315	271.489	4.09302	10.5337	287.932	3.25476	-9.3822	305.014	5.436	-22.5444	242.405	-2.51269	-40.3229	229.62	25.7487	-38.5333	233.365	23.9107	-4.75173	220.753	-5.44167	-38.2881	209.45	22.6211	-28.194	220.227	8.23357	8.72982	205.565	-11.1666	-28.1958	193.549	16.5431	-19.0394	206.012	13.6601	12.6611	191.925	-15.8168	-17.4099	186.705	12.0173	-8.22285	195.823	8.80091	18.3468	217.724	-43.8247	18.3519	217.645	-34.8602	53.521	247.358	-24.7072	31.7198	
197	1.64167	272.491	13.7999	41.6886	291.586	10.7093	16.1972	310.799	10.0748	-1.9997	321.956	13.9819	-15.1009	265.969	-6.37011	-33.1325	247.173	21.5313	-35.8716	245.202	20.8869	-5.70103	248.423	-14.136	-32.8271	231.385	14.5099	-33.2308	237.15	5.78264	8.93608	230.501	-17.595	-25.4672	213.795	8.99004	-19.5173	224.611	13.2134	9.66035	210.822	-26.0043	-15.1352	206.953	3.96581	-10.1072	217.968	1.93268	15.0294	241.965	-41.2444	23.6937	239.689	-29.8577	58.5938	270.73	-19.6652	38.799	
198	1.65	282.169	22.9108	44.4772	299.343	24.302	24.4487	323.444	25.1738	4.92325	341.317	31.695	-7.66034	289.826	-3.14981	-26.0839	263.21	18.6436	-34.4772	262.143	22.9063	0.129802	267.282	-16.995	-29.1253	250.228	12.4293	-30.7005	252.666	10.2523	9.26442	251.735	-23.1305	-20.4417	233.32	3.84618	-20.7953	239.324	11.4669	7.59466	236.572	-30.1281	-13.797	224.837	-3.3965	-10.0671	231.642	-0.296938	16.1821	264.078	-36.5923	32.937	259.322	-26.6287	60.0849	283.246	-10.4038	46.1734	
